<svg width="125.9" height="16.1" xmlns="http://www.w3.org/2000/svg">
 <style type="text/css">.st0{fill:url(#SVGID_1_);}
	.st1{fill:url(#SVGID_2_);}
	.st2{fill:url(#SVGID_3_);}
	.st3{fill:url(#SVGID_4_);}
	.st4{fill:url(#SVGID_5_);}
	.st5{fill:url(#SVGID_6_);}
	.st6{fill:url(#SVGID_7_);}
	.st7{fill:url(#SVGID_8_);}
	.st8{fill:url(#SVGID_9_);}
	.st9{fill:url(#SVGID_10_);}
	.st10{fill:#FFFFFF;stroke:#000000;stroke-miterlimit:10;}</style>

 <g>
  <title>background</title>
  <rect fill="none" id="canvas_background" height="402" width="582" y="-1" x="-1"/>
 </g>
 <g>
  <title>Layer 1</title>
  <g id="svg_1">
   <path id="svg_2" d="m-39.799825,58.499832l-4.5,-0.7l-2,-4.3c-0.1,-0.3 -0.4,-0.5 -0.8,-0.5c-0.3,0 -0.6,0.2 -0.8,0.5l-2,4.3l-4.4,0.7c-0.3,0 -0.6,0.3 -0.7,0.6c-0.1,0.3 0,0.7 0.2,0.9l3.3,3.3l-0.8,4.7c-0.1,0.3 0.1,0.7 0.3,0.9c0.3,0.2 0.6,0.2 0.9,0.1l4,-2.2l4,2.2c0.1,0.1 0.3,0.1 0.4,0.1c0.2,0 0.4,-0.1 0.5,-0.2c0.3,-0.2 0.4,-0.5 0.3,-0.9l-0.8,-4.7l3.3,-3.3c0.2,-0.2 0.3,-0.6 0.2,-0.9c0,-0.4 -0.3,-0.6 -0.6,-0.6z" class="st0"/>
  </g>
  <g stroke="null" id="svg_3">
   <path stroke="null" id="svg_4" d="m-49.999763,54.199853c0,-0.9 0.4,-1.7 1.2,-2.4c0.8,-0.6 1.8,-1 3.1,-1s2.3,0.3 3,1c0.8,0.6 1.2,1.5 1.2,2.6l-2.3,0c0,-0.5 -0.2,-1 -0.6,-1.3c-0.3,-0.3 -0.8,-0.5 -1.4,-0.5s-1.1,0.1 -1.4,0.4s-0.5,0.6 -0.5,1.1c0,0.4 0.2,0.8 0.7,1c0.4,0.3 1,0.4 1.6,0.6c0.6,0.1 1.3,0.3 1.9,0.4c0.6,0.2 1.2,0.5 1.6,1c0.4,0.5 0.7,1.1 0.7,1.9c0,1 -0.4,1.7 -1.2,2.3s-1.8,0.9 -3.1,0.9s-2.3,-0.3 -3.1,-0.9c-0.8,-0.6 -1.2,-1.5 -1.3,-2.6l2.4,0c0,0.5 0.2,1 0.6,1.3s0.8,0.5 1.5,0.5s1.1,-0.1 1.5,-0.4c0.4,-0.3 0.6,-0.6 0.6,-1.1s-0.2,-0.8 -0.7,-1.1c-0.4,-0.3 -1,-0.4 -1.6,-0.6c-0.6,-0.1 -1.3,-0.3 -1.9,-0.4c-0.6,-0.2 -1.2,-0.5 -1.6,-0.9c-0.7,-0.5 -0.9,-1.1 -0.9,-1.8z" class="st1"/>
   <path stroke="null" id="svg_5" d="m-33.499763,52.899853l-2.7,0l0,6.1c0,0.4 0.1,0.7 0.3,0.9s0.5,0.3 1,0.3l1.4,0l0,1.9l-1.8,0c-2.1,0 -3.2,-1 -3.2,-3.1l0,-6.1l-1.3,0l0,-1.9l1.3,0l0,-2.7l2.3,0l0,2.7l2.7,0l0,1.9z" class="st2"/>
   <path stroke="null" id="svg_6" d="m-30.599763,60.599853c-1,-1.1 -1.5,-2.4 -1.5,-4.1s0.5,-3 1.5,-4.1c1,-1 2.2,-1.6 3.7,-1.6c0.9,0 1.6,0.2 2.3,0.6s1.2,0.9 1.5,1.5l0,-2l2.3,0l0,11l-2.3,0l0,-1.9c-0.4,0.7 -0.9,1.2 -1.5,1.6c-0.7,0.4 -1.4,0.6 -2.3,0.6c-1.5,0 -2.7,-0.5 -3.7,-1.6zm6.5,-1.4c0.7,-0.7 1,-1.6 1,-2.7s-0.3,-2 -1,-2.7s-1.4,-1 -2.3,-1s-1.7,0.3 -2.3,1s-1,1.5 -1,2.7c0,1.1 0.3,2 1,2.7s1.4,1 2.3,1c0.8,0.1 1.6,-0.3 2.3,-1z" class="st3"/>
   <path stroke="null" id="svg_7" d="m-15.499763,50.999853l0,2c0.7,-1.4 1.8,-2.1 3.3,-2.1l0,2.4l-0.6,0c-0.9,0 -1.6,0.2 -2,0.7s-0.7,1.2 -0.7,2.4l0,5.8l-2.3,0l0,-11.2l2.3,0z" class="st4"/>
   <path stroke="null" id="svg_8" d="m-0.599763,62.099853l-1.1,-3l-6.2,0l-1.1,3l-1.9,0l5,-13.9l2,0l5,13.9l-1.7,0zm-6.7,-4.5l5.1,0l-2.6,-7.2l-2.5,7.2z" class="st5"/>
   <path stroke="null" id="svg_9" d="m4.500237,60.599853c-1,-1.1 -1.5,-2.4 -1.5,-4.1s0.5,-3 1.5,-4.1c1,-1 2.2,-1.6 3.8,-1.6c0.9,0 1.8,0.2 2.5,0.7s1.2,1 1.6,1.7l0,-6l1.8,0l0,14.8l-1.8,0l0,-2.2c-0.4,0.7 -0.9,1.3 -1.6,1.8c-0.7,0.4 -1.5,0.7 -2.5,0.7c-1.6,-0.1 -2.8,-0.6 -3.8,-1.7zm6.6,-1c0.7,-0.7 1.1,-1.7 1.1,-3c0,-1.2 -0.4,-2.2 -1.1,-3c-0.7,-0.7 -1.6,-1.1 -2.6,-1.1s-1.9,0.4 -2.6,1.1s-1.1,1.7 -1.1,2.9s0.4,2.2 1.1,3s1.6,1.2 2.6,1.2c1.1,0 1.9,-0.4 2.6,-1.1z" class="st6"/>
   <path stroke="null" id="svg_10" d="m18.900237,51.099853l0,1.8c0.7,-1.3 1.9,-2 3.6,-2c0.8,0 1.6,0.2 2.3,0.6c0.7,0.4 1.2,1 1.5,1.8c0.4,-0.7 0.9,-1.3 1.6,-1.7c0.7,-0.4 1.5,-0.6 2.4,-0.6c1.2,0 2.3,0.4 3.1,1.2c0.8,0.8 1.2,2 1.2,3.5l0,6.5l-1.8,0l0,-6.2c0,-1.1 -0.3,-1.9 -0.8,-2.5s-1.3,-0.9 -2.2,-0.9s-1.7,0.3 -2.2,0.9s-0.8,1.4 -0.8,2.5l0,6.2l-1.8,0l0,-6.2c0,-1.1 -0.3,-1.9 -0.8,-2.5s-1.3,-0.9 -2.2,-0.9s-1.7,0.3 -2.2,0.9s-0.8,1.4 -0.8,2.5l0,6.2l-1.8,0l0,-11l1.7,-0.1l0,0z" class="st7"/>
   <path stroke="null" id="svg_11" d="m39.300237,48.999853c-0.2,0.2 -0.5,0.4 -0.9,0.4s-0.6,-0.1 -0.9,-0.4c-0.2,-0.2 -0.3,-0.5 -0.3,-0.9s0.1,-0.6 0.4,-0.9c0.2,-0.2 0.5,-0.4 0.9,-0.4s0.6,0.1 0.9,0.4c0.2,0.2 0.4,0.5 0.4,0.9s-0.3,0.6 -0.5,0.9zm-1.8,13.1l0,-11l1.8,0l0,11l-1.8,0z" class="st8"/>
   <path stroke="null" id="svg_12" d="m44.100237,51.099853l0,1.8c0.7,-1.3 1.9,-2 3.6,-2c1.2,0 2.2,0.4 3,1.2s1.2,2 1.2,3.5l0,6.5l-1.8,0l0,-6.2c0,-1.1 -0.3,-1.9 -0.8,-2.5s-1.3,-0.9 -2.2,-0.9s-1.7,0.3 -2.2,0.9s-0.8,1.4 -0.8,2.5l0,6.2l-1.8,0l0,-11c0,0 1.8,0 1.8,0z" class="st9"/>
   <ellipse stroke="null" ry="0.249999" id="svg_15" cy="54.799852" cx="-45.299653" fill-opacity="null" stroke-opacity="null" stroke-width="null" fill="null"/>
  </g>
  <polygon id="svg_13" points="25.1,-43.6 25.1,-43.6 25.1,-43.6 25.1,-43.6 " class="st10"/>
  <text stroke="null" transform="matrix(0.850117564201355,0,0,0.9625512957572937,-1.1686146166175604,1.6851916909217834) " xml:space="preserve" text-anchor="start" font-family="Helvetica, Arial, sans-serif" font-size="24" id="svg_14" y="40.049898" x="-7.799773" fill-opacity="null" stroke-opacity="null" stroke-width="0" fill="#000000"/>
  <text stroke="null" transform="matrix(0.6827339055870141,0,0,0.4640135860025651,5.472567123779512,8.502200357814601) " xml:space="preserve" text-anchor="start" font-family="Helvetica, Arial, sans-serif" font-size="24" id="svg_16" y="7.127558" x="19.43249" stroke-opacity="null" stroke-width="0" fill="#426373">cloudbrainTest</text>
  <path stroke="null" id="svg_17" d="m2.151695,6.603332l6.298646,0l1.94633,-4.551316l1.946331,4.551316l6.298645,0l-5.095703,2.812836l1.946431,4.551316l-5.095705,-2.812912l-5.095704,2.812912l1.946431,-4.551316l-5.095704,-2.812836z" stroke-opacity="null" stroke-width="0" fill="#426373"/>
  <path id="svg_18" d="m29.059109,31.975096l0.569133,0l0.175867,-0.540674l0.175867,0.540674l0.569133,0l-0.460438,0.334151l0.175876,0.540674l-0.460438,-0.33416l-0.460438,0.33416l0.175876,-0.540674l-0.460438,-0.334151z" fill-opacity="null" stroke-opacity="null" stroke-width="0" stroke="null" fill="#426373"/>
  <path id="svg_19" d="m-19.695735,55.855018l0.569133,0l0.175867,-0.540674l0.175867,0.540674l0.569133,0l-0.460438,0.334151l0.175876,0.540674l-0.460438,-0.33416l-0.460438,0.33416l0.175876,-0.540674l-0.460438,-0.334151z" fill-opacity="null" stroke-opacity="null" stroke-width="0" stroke="null" fill="#426373"/>
 </g>
</svg>